<svg width="96" height="96" xmlns="http://www.w3.org/2000/svg" xmlns:xlink="http://www.w3.org/1999/xlink" overflow="hidden"><defs><clipPath id="clip0"><rect x="643" y="159" width="96" height="96"/></clipPath></defs><g clip-path="url(#clip0)" transform="translate(-643 -159)"><path d="M653 193 660 193 660 197 653 197Z" fill="#FFFFFF"/><path d="M653 185 660 185 660 189 653 189Z" fill="#FFFFFF"/><path d="M653 201 660 201 660 205 653 205Z" fill="#FFFFFF"/><path d="M653 225 660 225 660 229 653 229Z" fill="#FFFFFF"/><path d="M653 217 660 217 660 221 653 221Z" fill="#FFFFFF"/><path d="M653 209 660 209 660 213 653 213Z" fill="#FFFFFF"/><path d="M722 217 729 217 729 221 722 221Z" fill="#FFFFFF"/><path d="M722 225 729 225 729 229 722 229Z" fill="#FFFFFF"/><path d="M722 209 729 209 729 213 722 213Z" fill="#FFFFFF"/><path d="M722 185 729 185 729 189 722 189Z" fill="#FFFFFF"/><path d="M722 201 729 201 729 205 722 205Z" fill="#FFFFFF"/><path d="M722 193 729 193 729 197 722 197Z" fill="#FFFFFF"/><path d="M693 169 697 169 697 176 693 176Z" fill="#FFFFFF"/><path d="M709 169 713 169 713 176 709 176Z" fill="#FFFFFF"/><path d="M701 169 705 169 705 176 701 176Z" fill="#FFFFFF"/><path d="M685 169 689 169 689 176 685 176Z" fill="#FFFFFF"/><path d="M669 169 673 169 673 176 669 176Z" fill="#FFFFFF"/><path d="M677 169 681 169 681 176 677 176Z" fill="#FFFFFF"/><path d="M677 238 681 238 681 245 677 245Z" fill="#FFFFFF"/><path d="M669 238 673 238 673 245 669 245Z" fill="#FFFFFF"/><path d="M685 238 689 238 689 245 685 245Z" fill="#FFFFFF"/><path d="M693 238 697 238 697 245 693 245Z" fill="#FFFFFF"/><path d="M701 238 705 238 705 245 701 245Z" fill="#FFFFFF"/><path d="M709 238 713 238 713 245 709 245Z" fill="#FFFFFF"/><path d="M678 194 704 194 704 220 678 220Z" fill="#FFFFFF"/><path d="M714 180 668 180C665.791 180 664 181.791 664 184L664 230C664 232.209 665.791 234 668 234L714 234C716.209 234 718 232.209 718 230L718 184C718 181.791 716.209 180 714 180ZM708 224 674 224 674 190 708 190Z" fill="#FFFFFF"/></g></svg>