<svg width="96" height="96" xmlns="http://www.w3.org/2000/svg" xmlns:xlink="http://www.w3.org/1999/xlink" overflow="hidden"><defs><clipPath id="clip0"><rect x="483" y="200" width="96" height="96"/></clipPath></defs><g clip-path="url(#clip0)" transform="translate(-483 -200)"><path d="M498 227.95C499.986 227.947 501.782 226.77 502.576 224.95L507 224.95C508.105 224.95 509 225.845 509 226.95L509 240.086C510.02 239.71 511.084 239.466 512.166 239.361 512.36 238.47 512.64 237.599 513 236.761L513 226.95C512.996 223.638 510.312 220.954 507 220.95L502.576 220.95C501.471 218.419 498.524 217.263 495.993 218.367 493.462 219.472 492.306 222.419 493.411 224.95 494.207 226.774 496.009 227.953 498 227.95Z" fill="#BFBFBF"/><path d="M501.89 257.229C501.845 257.136 501.809 257.042 501.767 256.95L494 256.95C492.895 256.95 492 256.055 492 254.95L492 249.526C494.531 248.421 495.687 245.474 494.583 242.943 493.478 240.413 490.531 239.256 488 240.361 485.469 241.465 484.313 244.413 485.417 246.943 485.922 248.099 486.844 249.022 488 249.526L488 254.95C488.004 258.262 490.688 260.946 494 260.95L504.626 260.95C503.491 259.891 502.563 258.629 501.89 257.229Z" fill="#BFBFBF"/><path d="M527 215.526 527 227.982C528.359 228.032 529.706 228.269 531 228.688L531 215.526C533.531 214.421 534.687 211.474 533.583 208.943 532.478 206.413 529.531 205.256 527 206.361 524.469 207.465 523.313 210.413 524.417 212.943 524.922 214.099 525.844 215.022 527 215.526Z" fill="#BFBFBF"/><path d="M547.26 235.9C547.516 236.08 547.76 236.274 548 236.47L548 232.95C548 231.845 548.895 230.95 550 230.95L556 230.95C559.312 230.946 561.996 228.262 562 224.95L562 223.526C564.531 222.421 565.687 219.474 564.583 216.943 563.478 214.413 560.531 213.256 558 214.361 555.469 215.465 554.313 218.413 555.417 220.943 555.922 222.099 556.844 223.022 558 223.526L558 224.95C558 226.055 557.105 226.95 556 226.95L550 226.95C546.688 226.953 544.003 229.638 544 232.95L544 234.266C545.16 234.651 546.258 235.201 547.26 235.9Z" fill="#BFBFBF"/><path d="M517 264.408 517 266.95C517 268.055 516.105 268.95 515 268.95L509 268.95C505.688 268.953 503.003 271.638 503 274.95L503 276.374C500.469 277.479 499.313 280.426 500.417 282.957 501.522 285.487 504.469 286.644 507 285.539 509.531 284.435 510.687 281.487 509.583 278.957 509.078 277.801 508.156 276.878 507 276.374L507 274.95C507 273.845 507.895 272.95 509 272.95L515 272.95C518.312 272.946 520.996 270.262 521 266.95L521 264.408Z" fill="#BFBFBF"/><path d="M572 242.95C570.014 242.953 568.218 244.13 567.424 245.95L557.511 245.95C558.728 247.053 559.675 248.422 560.276 249.95L567.424 249.95C568.529 252.481 571.476 253.637 574.007 252.533 576.537 251.428 577.694 248.481 576.589 245.95 575.793 244.126 573.99 242.947 572 242.95Z" fill="#BFBFBF"/><path d="M563 269.95C561.014 269.953 559.218 271.13 558.424 272.95L554 272.95C552.895 272.95 552 272.055 552 270.95L552 264.257C551.429 264.354 550.851 264.405 550.271 264.408L548 264.408 548 270.95C548.004 274.262 550.688 276.946 554 276.95L558.424 276.95C559.529 279.481 562.476 280.637 565.007 279.533 567.537 278.428 568.694 275.481 567.589 272.95 566.793 271.126 564.99 269.947 563 269.95Z" fill="#BFBFBF"/><path d="M536 279.374 536 264.408 532 264.408 532 279.374C529.469 280.479 528.313 283.426 529.417 285.957 530.522 288.487 533.469 289.644 536 288.539 538.531 287.435 539.687 284.487 538.583 281.957 538.078 280.801 537.156 279.878 536 279.374Z" fill="#BFBFBF"/><path d="M550.271 246.146C550.056 246.141 549.841 246.151 549.627 246.178L549.627 246.146C549.622 243.038 548.096 240.13 545.543 238.358 542.972 236.571 539.699 236.124 536.743 237.158 534.261 232.456 528.908 230.033 523.737 231.269 518.575 232.462 514.9 237.033 514.844 242.33L514.844 242.43C511.315 241.87 507.763 243.29 505.594 246.13 503.447 248.95 503.061 252.735 504.594 255.93 506.149 259.141 509.346 261.235 512.911 261.377L516 261.409 550.271 261.409C554.486 261.457 557.942 258.08 557.99 253.865 558.038 249.65 554.661 246.194 550.446 246.146 550.388 246.145 550.329 246.145 550.271 246.146Z" fill="#BFBFBF"/></g></svg>