<svg width="96" height="96" xmlns="http://www.w3.org/2000/svg" xmlns:xlink="http://www.w3.org/1999/xlink" overflow="hidden"><defs><clipPath id="clip0"><rect x="535" y="509" width="96" height="96"/></clipPath></defs><g clip-path="url(#clip0)" transform="translate(-535 -509)"><path d="M574.346 542 587.077 542 574.377 520C562.62 522.749 552.865 530.912 548.086 542Z" fill="#BFBFBF"/><path d="M595.738 549 595.715 549.013 598.083 553.113 610.8 531.1C603.623 523.375 593.551 518.99 583.006 519 581.524 519.003 580.043 519.092 578.571 519.266Z" fill="#BFBFBF"/><path d="M594.108 568 619.383 568C622.857 556.493 620.686 544.02 613.528 534.364Z" fill="#BFBFBF"/><path d="M591.666 572 578.935 572 591.635 594C603.391 591.251 613.147 583.088 617.925 572Z" fill="#BFBFBF"/><path d="M570.273 565 570.297 564.987 567.913 560.859 555.2 582.885C562.377 590.619 572.455 595.01 583.006 595 584.488 594.997 585.969 594.908 587.441 594.734Z" fill="#BFBFBF"/><path d="M571.873 546 546.629 546C543.158 557.497 545.322 569.959 552.467 579.612Z" fill="#BFBFBF"/></g></svg>