<svg width="96" height="96" xmlns="http://www.w3.org/2000/svg" xmlns:xlink="http://www.w3.org/1999/xlink" overflow="hidden"><defs><clipPath id="clip0"><rect x="878" y="425" width="96" height="96"/></clipPath></defs><g clip-path="url(#clip0)" transform="translate(-878 -425)"><path d="M926 487C918.3 487 912 480.7 912 473 912 465.3 918.3 459 926 459 933.7 459 940 465.3 940 473 940 480.7 933.7 487 926 487ZM926 435C905 435 888 452 888 473 888 494 905 511 926 511 947 511 964 494 964 473 964 452 947 435 926 435Z" fill="#BFBFBF"/><path d="M926 477C923.8 477 922 475.2 922 473 922 470.8 923.8 469 926 469 928.2 469 930 470.8 930 473 930 475.2 928.2 477 926 477ZM926 463C920.5 463 916 467.5 916 473 916 478.5 920.5 483 926 483 931.5 483 936 478.5 936 473 936 467.5 931.5 463 926 463Z" fill="#BFBFBF"/></g></svg>