<svg width="96" height="96" xmlns="http://www.w3.org/2000/svg" xmlns:xlink="http://www.w3.org/1999/xlink" overflow="hidden"><defs><clipPath id="clip0"><rect x="592" y="312" width="96" height="96"/></clipPath></defs><g clip-path="url(#clip0)" transform="translate(-592 -312)"><path d="M668 330C668 334.418 655.464 338 640 338 624.536 338 612 334.418 612 330 612 325.582 624.536 322 640 322 655.464 322 668 325.582 668 330Z" fill="#BFBFBF"/><path d="M660 350C658.8 350 658 349.2 658 348 658 346.8 658.8 346 660 346 661.2 346 662 346.8 662 348 662 349.2 661.2 350 660 350ZM640 342C624.6 342 612 338.4 612 334L612 350C612 354.4 624.6 358 640 358 655.4 358 668 354.4 668 350L668 334C668 338.4 655.4 342 640 342Z" fill="#BFBFBF"/><path d="M660 370C658.8 370 658 369.2 658 368 658 366.8 658.8 366 660 366 661.2 366 662 366.8 662 368 662 369.2 661.2 370 660 370ZM640 362C624.6 362 612 358.4 612 354L612 370C612 374.4 624.6 378 640 378 655.4 378 668 374.4 668 370L668 354C668 358.4 655.4 362 640 362Z" fill="#BFBFBF"/><path d="M660 390C658.8 390 658 389.2 658 388 658 386.8 658.8 386 660 386 661.2 386 662 386.8 662 388 662 389.2 661.2 390 660 390ZM640 382C624.6 382 612 378.4 612 374L612 390C612 394.4 624.6 398 640 398 655.4 398 668 394.4 668 390L668 374C668 378.4 655.4 382 640 382Z" fill="#BFBFBF"/></g></svg>