<svg width="96" height="96" xmlns="http://www.w3.org/2000/svg" xmlns:xlink="http://www.w3.org/1999/xlink" overflow="hidden"><defs><clipPath id="clip0"><rect x="707" y="473" width="96" height="96"/></clipPath></defs><g clip-path="url(#clip0)" transform="translate(-707 -473)"><path d="M741 497 747 497 747 512 741 512Z" fill="#BFBFBF"/><path d="M773 516 737 516 737 493 773 493 773 516ZM755 542C749.5 542 745 537.5 745 532 745 526.5 749.5 522 755 522 760.5 522 765 526.5 765 532 765 537.5 760.5 542 755 542ZM785 487 773 487 737 487 731 487 721 497 721 551C721 553.2 722.8 555 725 555L785 555C787.2 555 789 553.2 789 551L789 491C789 488.8 787.2 487 785 487Z" fill="#BFBFBF"/><path d="M752 529 758 529 758 535 752 535Z" fill="#BFBFBF"/></g></svg>