<svg width="96" height="96" xmlns="http://www.w3.org/2000/svg" xmlns:xlink="http://www.w3.org/1999/xlink" overflow="hidden"><defs><clipPath id="clip0"><rect x="381" y="425" width="96" height="96"/></clipPath></defs><g clip-path="url(#clip0)" transform="translate(-381 -425)"><path d="M462 474C460.3 474 459 472.7 459 471 459 469.3 460.3 468 462 468 463.7 468 465 469.3 465 471 465 472.7 463.7 474 462 474ZM439 474 433 474 433 468 439 468 439 474ZM429 474 393 474 393 468 429 468 429 474ZM469 459 389 459C386.8 459 385 460.8 385 463L385 479C385 481.2 386.8 483 389 483L393 483 393 487 405 487 405 483 453 483 453 487 465 487 465 483 469 483C471.2 483 473 481.2 473 479L473 463C473 460.8 471.2 459 469 459Z" fill="#BFBFBF"/></g></svg>