<svg width="96" height="96" xmlns="http://www.w3.org/2000/svg" xmlns:xlink="http://www.w3.org/1999/xlink" overflow="hidden"><defs><clipPath id="clip0"><rect x="821" y="232" width="96" height="96"/></clipPath></defs><g clip-path="url(#clip0)" transform="translate(-821 -232)"><path d="M831 266 838 266 838 270 831 270Z" fill="#BFBFBF"/><path d="M831 258 838 258 838 262 831 262Z" fill="#BFBFBF"/><path d="M831 274 838 274 838 278 831 278Z" fill="#BFBFBF"/><path d="M831 298 838 298 838 302 831 302Z" fill="#BFBFBF"/><path d="M831 290 838 290 838 294 831 294Z" fill="#BFBFBF"/><path d="M831 282 838 282 838 286 831 286Z" fill="#BFBFBF"/><path d="M900 290 907 290 907 294 900 294Z" fill="#BFBFBF"/><path d="M900 298 907 298 907 302 900 302Z" fill="#BFBFBF"/><path d="M900 282 907 282 907 286 900 286Z" fill="#BFBFBF"/><path d="M900 258 907 258 907 262 900 262Z" fill="#BFBFBF"/><path d="M900 274 907 274 907 278 900 278Z" fill="#BFBFBF"/><path d="M900 266 907 266 907 270 900 270Z" fill="#BFBFBF"/><path d="M871 242 875 242 875 249 871 249Z" fill="#BFBFBF"/><path d="M887 242 891 242 891 249 887 249Z" fill="#BFBFBF"/><path d="M879 242 883 242 883 249 879 249Z" fill="#BFBFBF"/><path d="M863 242 867 242 867 249 863 249Z" fill="#BFBFBF"/><path d="M847 242 851 242 851 249 847 249Z" fill="#BFBFBF"/><path d="M855 242 859 242 859 249 855 249Z" fill="#BFBFBF"/><path d="M855 311 859 311 859 318 855 318Z" fill="#BFBFBF"/><path d="M847 311 851 311 851 318 847 318Z" fill="#BFBFBF"/><path d="M863 311 867 311 867 318 863 318Z" fill="#BFBFBF"/><path d="M871 311 875 311 875 318 871 318Z" fill="#BFBFBF"/><path d="M879 311 883 311 883 318 879 318Z" fill="#BFBFBF"/><path d="M887 311 891 311 891 318 887 318Z" fill="#BFBFBF"/><path d="M856 267 882 267 882 293 856 293Z" fill="#BFBFBF"/><path d="M892 253 846 253C843.791 253 842 254.791 842 257L842 303C842 305.209 843.791 307 846 307L892 307C894.209 307 896 305.209 896 303L896 257C896 254.791 894.209 253 892 253ZM886 297 852 297 852 263 886 263Z" fill="#BFBFBF"/></g></svg>